# xmcd
# 
# Track frame offsets:
#     150
#     27319
#     46375
#     64657
#     85854
#     96916
#     112794
#     123355
#     136793
#     149024
#     158520
#     171049
# 
# Disc length: 2524
# 
# Revision: 1
# Processed by: cddbd v1.5.2PL0 Copyright (c) Steve Scherf et al.
# Submitted via: fre:ac v1.0.31
# 
DISCID=9709da0c
DTITLE=Bonnie Prince Billy - Pond scum
DYEAR=2016
DGENRE=
TTITLE0=(I was drunk at the) Pulpit
TTITLE1=Death to everyone
TTITLE2=Arise, therefore
TTITLE3=Jolly five (64)
TTITLE4=Beezle
TTITLE5=Jolly one (2-25)
TTITLE6=When thy song flows through me
TTITLE7=The houseboat (O how I enjoy the light)
TTITLE8=Trudy dies
TTITLE9=The cross
TTITLE10=Stable will
TTITLE11=The idol on the bar
EXTD=
EXTT0=
EXTT1=
EXTT2=
EXTT3=
EXTT4=
EXTT5=
EXTT6=
EXTT7=
EXTT8=
EXTT9=
EXTT10=
EXTT11=
PLAYORDER=
